<?xml version="1.0" encoding="UTF-8"?>
<svg version="1.1" xmlns="http://www.w3.org/2000/svg" width="512" height="512">
<path d="M0 0 C0.9914091 -0.00307895 0.9914091 -0.00307895 2.00284666 -0.0062201 C4.22120759 -0.01188193 6.43950627 -0.01043386 8.65787315 -0.00901413 C10.26302168 -0.01159824 11.86816956 -0.01461153 13.47331655 -0.01801753 C17.88740007 -0.02608549 22.30146732 -0.02787699 26.71555734 -0.028615 C31.47510162 -0.03046592 36.23463746 -0.03801348 40.99417686 -0.04475021 C51.40337715 -0.05833288 61.81257358 -0.06435822 72.22178125 -0.06876087 C78.7217743 -0.07152355 85.22176585 -0.07576097 91.72175789 -0.08026505 C109.71933524 -0.0924579 127.7169114 -0.102757 145.7144928 -0.10614014 C146.8664184 -0.1063597 148.018344 -0.10657927 149.20517644 -0.10680549 C150.3598556 -0.10702377 151.51453476 -0.10724204 152.7042042 -0.10746694 C155.04401565 -0.1079104 157.38382709 -0.10835697 159.72363853 -0.10880661 C161.46457879 -0.10913875 161.46457879 -0.10913875 163.24068956 -0.10947761 C182.04408384 -0.11342503 200.84743935 -0.1308773 219.65081866 -0.15416613 C238.95729348 -0.17788498 258.26374885 -0.19034224 277.57023847 -0.19150805 C288.40954663 -0.19242454 299.24880428 -0.19817026 310.08809853 -0.21632767 C319.31874497 -0.23173587 328.5493253 -0.23684487 337.77998216 -0.22858956 C342.48814899 -0.22468556 347.19618271 -0.22560052 351.90433311 -0.23964691 C356.21873957 -0.25240067 360.53291309 -0.25117537 364.84731929 -0.2390562 C366.40388507 -0.23710175 367.96046743 -0.24016593 369.51700993 -0.24890056 C385.65137498 -0.33367022 398.21683487 2.7415357 410.250494 13.89314651 C418.41436506 22.70274748 422.44355007 33.91959352 422.45614052 45.80671501 C422.45819315 46.46765441 422.46024579 47.12859381 422.46236062 47.80956167 C422.46802245 50.0279226 422.46657438 52.24622129 422.46515465 54.46458817 C422.46773876 56.06973669 422.47075204 57.67488457 422.47415805 59.28003156 C422.48222601 63.69411508 422.48401751 68.10818233 422.48475552 72.52227235 C422.48660644 77.28181663 422.494154 82.04135247 422.50089073 86.80089188 C422.51447339 97.21009216 422.52049874 107.61928859 422.52490139 118.02849627 C422.52766407 124.52848931 422.53190149 131.02848086 422.53640556 137.5284729 C422.54859842 155.52605025 422.55889752 173.52362642 422.56228065 191.52120781 C422.56250022 192.67313341 422.56271979 193.82505901 422.56294601 195.01189145 C422.56316428 196.16657061 422.56338256 197.32124977 422.56360745 198.51091921 C422.56405092 200.85073066 422.56449748 203.1905421 422.56494713 205.53035355 C422.56516856 206.69098038 422.56538999 207.85160722 422.56561813 209.04740457 C422.56956555 227.85079885 422.58701782 246.65415437 422.61030665 265.45753367 C422.6340255 284.76400849 422.64648276 304.07046386 422.64764857 323.37695348 C422.64856506 334.21626164 422.65431077 345.0555193 422.67246819 355.89481354 C422.68787639 365.12545998 422.69298539 374.35604031 422.68473008 383.58669718 C422.68082607 388.294864 422.68174104 393.00289772 422.69578743 397.71104813 C422.70854119 402.02545458 422.70731589 406.3396281 422.69519672 410.6540343 C422.69324227 412.21060008 422.69630645 413.76718244 422.70504108 415.32372494 C422.78981074 431.45808999 419.71460482 444.02354988 408.562994 456.05720901 C399.75339304 464.22108007 388.536547 468.25026508 376.64942551 468.26285553 C375.98848611 468.26490816 375.32754671 468.2669608 374.64657885 468.26907563 C372.42821792 468.27473746 370.20991923 468.27328939 367.99155235 468.27186966 C366.38640383 468.27445377 364.78125595 468.27746706 363.17610896 468.28087306 C358.76202544 468.28894102 354.34795819 468.29073252 349.93386817 468.29147053 C345.17432389 468.29332145 340.41478804 468.30086901 335.65524864 468.30760574 C325.24604836 468.32118841 314.83685192 468.32721375 304.42764425 468.3316164 C297.92765121 468.33437908 291.42765966 468.3386165 284.92766762 468.34312057 C266.93009026 468.35531343 248.9325141 468.36561253 230.93493271 468.36899567 C229.78300711 468.36921523 228.63108151 468.3694348 227.44424907 468.36966102 C226.28956991 468.3698793 225.13489075 468.37009757 223.9452213 468.37032247 C221.60540986 468.37076593 219.26559842 468.37121249 216.92578697 468.37166214 C215.18484671 468.37199428 215.18484671 468.37199428 213.40873595 468.37233314 C194.60534167 468.37628056 175.80198615 468.39373283 156.99860685 468.41702166 C137.69213203 468.44074051 118.38567666 468.45319777 99.07918704 468.45436358 C88.23987888 468.45528007 77.40062122 468.46102578 66.56132698 468.4791832 C57.33068054 468.4945914 48.1001002 468.4997004 38.86944334 468.49144509 C34.16127652 468.48754109 29.4532428 468.48845605 24.74509239 468.50250244 C20.43068594 468.5152562 16.11651242 468.5140309 11.80210622 468.50191173 C10.24554044 468.49995728 8.68895808 468.50302146 7.13241558 468.51175609 C-9.00194947 468.59652575 -21.56740937 465.52131983 -33.6010685 454.36970901 C-41.40125514 445.95255846 -45.79470853 434.94833664 -45.80671501 423.54516029 C-45.80876765 422.8816984 -45.81082028 422.2182365 -45.81293511 421.5346697 C-45.81860933 419.30171626 -45.81714734 417.06882441 -45.81572914 414.83586502 C-45.81831254 413.22261726 -45.82132563 411.60937014 -45.82473254 409.99612391 C-45.83280887 405.5550473 -45.83459247 401.11398686 -45.83533001 396.67290378 C-45.83717949 391.88609428 -45.84472634 387.0992932 -45.85146523 382.31248856 C-45.86505402 371.8413147 -45.87107424 361.37014466 -45.87547588 350.89896345 C-45.87823763 344.36129392 -45.88247489 337.82362587 -45.88698006 331.28595734 C-45.89917391 313.18719386 -45.90947269 295.08843157 -45.91285515 276.98966408 C-45.91307471 275.83101657 -45.91329428 274.67236907 -45.9135205 273.47861103 C-45.91373878 272.31717841 -45.91395706 271.15574579 -45.91418195 269.95911825 C-45.91462541 267.6055847 -45.91507198 265.25205115 -45.91552162 262.89851761 C-45.91574305 261.73108173 -45.91596448 260.56364585 -45.91619262 259.36083312 C-45.92014011 240.44676886 -45.93759211 221.53274313 -45.96088114 202.61869375 C-45.9845954 183.20264423 -45.99705705 163.78661404 -45.99822307 144.3705498 C-45.99913984 133.46810154 -46.00489256 122.56570348 -46.02304268 111.66326904 C-46.03844471 102.3787711 -46.04356354 93.09433888 -46.03530458 83.80983059 C-46.03139832 79.07344119 -46.03232648 74.33718412 -46.04636192 69.600811 C-46.05910229 65.26174506 -46.05790211 60.92291085 -46.04577121 56.58384521 C-46.04381444 55.01717321 -46.04689173 53.45048478 -46.05561557 51.88383584 C-46.13813585 36.0580115 -42.84308656 23.99964624 -31.9135685 12.20564651 C-23.10396753 4.04177546 -11.88712149 0.01259045 0 0 Z M82.0395565 95.99470901 C76.09080053 103.40694026 71.2106513 113.55022208 71.19328499 123.1876812 C71.18944384 123.99065939 71.1856027 124.79363757 71.18164515 125.62094843 C71.18251164 126.49739398 71.18337812 127.37383952 71.18427086 128.27684402 C71.18129974 129.21242311 71.17832861 130.14800219 71.17526746 131.11193216 C71.16657883 134.25467017 71.16507206 137.39737009 71.16357994 140.54011917 C71.15895182 142.79046587 71.15392717 145.04081178 71.14853477 147.29115677 C71.13540672 153.41123058 71.12896483 159.53129342 71.12452412 165.65137911 C71.12159358 169.47539194 71.11748876 173.29940177 71.11301994 177.12341309 C71.10091013 187.71782747 71.09052883 198.31223925 71.08714485 208.90666008 C71.08692529 209.58455456 71.08670572 210.26244905 71.0864795 210.96088579 C71.08626122 211.64037683 71.08604294 212.31986787 71.08581805 213.01994956 C71.08537459 214.39678995 71.08492803 215.77363034 71.08447838 217.15047073 C71.08425695 217.83342702 71.08403552 218.51638331 71.08380738 219.22003524 C71.07986247 230.27728256 71.06241781 241.33446385 71.03911886 252.39168568 C71.01537311 263.75301027 71.00319919 275.11429065 71.00177693 286.47564447 C71.00072934 292.85091036 70.99483119 299.22608317 70.97695732 305.60132599 C70.96046319 311.60133092 70.95832778 317.60117293 70.96709633 323.60119247 C70.96786602 325.79975318 70.96353295 327.99832269 70.95363808 330.19686127 C70.94089204 333.20613677 70.94681006 336.21483754 70.95722008 339.22410965 C70.94916367 340.08717086 70.94110727 340.95023208 70.93280673 341.83944666 C71.03690623 354.77122756 76.38830176 365.67109161 85.0864315 375.05720901 C93.43498005 382.79382207 104.41377036 387.24254198 115.73673058 387.27186966 C116.37829389 387.27484078 117.0198572 387.2778119 117.68086183 387.28087306 C119.82859754 387.28953784 121.97627736 387.29106644 124.12402916 387.29256058 C125.66502564 387.29719045 127.20602099 387.30221533 128.747015 387.30760574 C132.93326605 387.32071834 137.11950107 387.32717286 141.30576944 387.3316164 C143.92371301 387.33454989 146.54165221 387.3386553 149.15959358 387.34312057 C157.35765329 387.35679455 165.55570301 387.36646083 173.75377333 387.37032247 C183.20340097 387.37479851 192.65288362 387.39232569 202.10246718 387.42132306 C209.41474851 387.44297919 216.72698918 387.4530289 224.03930223 387.45436358 C228.40249736 387.4554091 232.76555618 387.46126242 237.12871742 387.4791832 C241.23767748 387.49573125 245.34639977 387.49778693 249.45538139 387.48904419 C250.95731941 387.48827732 252.45927055 387.49257004 253.96117592 387.50250244 C269.61687795 387.59990149 281.59722438 384.16881228 293.250494 373.36970901 C300.07816351 366.00199785 305.437766 355.27214107 305.45614052 345.07517433 C305.45998166 344.27219614 305.46382281 343.46921796 305.46778035 342.6419071 C305.46691387 341.76546155 305.46604739 340.88901601 305.46515465 339.98601151 C305.46812577 339.05043242 305.47109689 338.11485334 305.47415805 337.15092337 C305.48284668 334.00818536 305.48435345 330.86548544 305.48584557 327.72273636 C305.49047368 325.47238966 305.49549833 323.22204375 305.50089073 320.97169876 C305.51401878 314.85162495 305.52046068 308.73156211 305.52490139 302.61147642 C305.52783193 298.78746359 305.53193674 294.96345376 305.53640556 291.13944244 C305.54851538 280.54502806 305.55889668 269.95061628 305.56228065 259.35619545 C305.56250022 258.67830097 305.56271979 258.00040648 305.56294601 257.30196974 C305.56316428 256.6224787 305.56338256 255.94298766 305.56360745 255.24290597 C305.56405092 253.86606558 305.56449748 252.48922519 305.56494713 251.1123848 C305.56516856 250.42942851 305.56538999 249.74647222 305.56561813 249.04282029 C305.56956303 237.98557297 305.5870077 226.92839168 305.61030665 215.87116985 C305.6340524 204.50984526 305.64622632 193.14856488 305.64764857 181.78721106 C305.64869617 175.41194517 305.65459432 169.03677236 305.67246819 162.66152954 C305.68896232 156.66152461 305.69109773 150.6616826 305.68232918 144.66166306 C305.68155948 142.46310235 305.68589255 140.26453284 305.69578743 138.06599426 C305.70853347 135.05671876 305.70261544 132.04801799 305.69220543 129.03874588 C305.70026183 128.17568467 305.70831824 127.31262345 305.71661878 126.42340887 C305.61251927 113.49162797 300.26112375 102.59176392 291.562994 93.20564651 C283.21444545 85.46903346 272.23565515 81.02031355 260.91269493 80.99098587 C260.27113162 80.98801475 259.6295683 80.98504363 258.96856368 80.98198247 C256.82082796 80.97331769 254.67314814 80.97178909 252.52539635 80.97029495 C250.98439986 80.96566508 249.44340452 80.96064019 247.90241051 80.95524979 C243.71615946 80.94213719 239.52992444 80.93568267 235.34365606 80.93123913 C232.7257125 80.92830564 230.10777329 80.92420023 227.48983192 80.91973495 C219.29177222 80.90606098 211.09372249 80.8963947 202.89565217 80.89253306 C193.44602454 80.88805702 183.99654189 80.87052984 174.54695833 80.84153247 C167.23467699 80.81987634 159.92243632 80.80982663 152.61012328 80.80849195 C148.24692815 80.80744643 143.88386932 80.80159311 139.52070808 80.78367233 C135.41174803 80.76712428 131.30302574 80.7650686 127.19404411 80.77381134 C125.6921061 80.77457821 124.19015495 80.77028549 122.68824959 80.76035309 C106.97654246 80.66260562 93.11895019 84.09965444 82.0395565 95.99470901 Z " fill="#000000" transform="translate(67.6752872467041,21.868572235107422)"/>
<path d="M0 0 C1.28682678 -0.0071553 2.57365356 -0.01431061 3.8994751 -0.02168274 C5.32363867 -0.02452285 6.74780251 -0.0272346 8.17196655 -0.02983093 C9.67355506 -0.03609833 11.17514202 -0.04274538 12.67672729 -0.04974365 C17.60660732 -0.07075732 22.53648755 -0.08114497 27.46640015 -0.09111023 C29.16626374 -0.09515909 30.86612718 -0.09927605 32.56599045 -0.10346031 C40.55474442 -0.12250774 48.54348919 -0.13673852 56.53226149 -0.14507228 C65.73969251 -0.15483698 74.94688263 -0.18113824 84.15422881 -0.22157317 C91.2796742 -0.25178614 98.40505076 -0.26654614 105.53055894 -0.26985329 C109.78202345 -0.27219828 114.03323048 -0.28108623 118.28462601 -0.30631447 C122.28857954 -0.32969054 126.29210782 -0.33379048 130.29611206 -0.32355309 C131.75935663 -0.32305989 133.22262282 -0.32931618 134.68580246 -0.34310913 C144.86315451 -0.43361909 152.49685162 0.68482176 161.05233765 6.33467102 C168.20457818 13.81957391 169.88916668 21.06389146 169.88700867 31.14073181 C169.89068536 32.05997669 169.89436204 32.97922156 169.89815015 33.92632234 C169.9091837 37.01377884 169.91303029 40.10120167 169.9168396 43.18867493 C169.92310452 45.39961351 169.92975135 47.61055105 169.93675232 49.82148743 C169.95779246 57.08889533 169.96815495 64.35630345 169.9781189 71.62373352 C169.98216653 74.12596523 169.98628345 76.62819683 169.99046898 79.13042831 C170.0073378 89.53954809 170.0219722 99.94866629 170.02921772 110.35779762 C170.0311275 113.0576083 170.03304785 115.75741897 170.03500366 118.45722961 C170.0354874 119.12822344 170.03597114 119.79921727 170.03646954 120.49054424 C170.0447652 131.35381807 170.07009509 142.21698161 170.10258434 153.0802073 C170.13569523 164.24264035 170.15333766 175.40503355 170.15686196 186.56751955 C170.1592118 192.83103764 170.16816395 199.0943814 170.19332314 205.35785294 C170.21661946 211.25283406 170.2208306 217.14752626 170.21056175 223.0425415 C170.21006666 225.20240617 170.21637917 227.36228514 170.2301178 229.52210617 C170.24786929 232.47898407 170.24071421 235.43482871 170.22758484 238.39170837 C170.23855408 239.2392058 170.24952333 240.08670322 170.26082498 240.95988238 C170.1787081 248.66056375 167.78215253 255.05452277 163.55233765 261.45967102 C157.03997066 267.68259947 150.37761729 270.26035984 141.47967529 270.29434204 C140.19284851 270.30149734 138.90602173 270.30865265 137.5802002 270.31602478 C136.15603662 270.31886489 134.73187278 270.32157664 133.30770874 270.32417297 C131.80612024 270.33044037 130.30453327 270.33708742 128.802948 270.34408569 C123.87306798 270.36509936 118.94318775 270.37548702 114.01327515 270.38545227 C112.31341155 270.38950113 110.61354811 270.39361809 108.91368484 270.39780235 C100.92493087 270.41684978 92.93618611 270.43108056 84.9474138 270.43941432 C75.73998279 270.44917902 66.53279266 270.47548028 57.32544649 270.51591522 C50.20000109 270.54612818 43.07462453 270.56088818 35.94911635 270.56419533 C31.69765184 270.56654032 27.44644481 270.57542827 23.19504929 270.60065651 C19.19109575 270.62403258 15.18756747 270.62813252 11.18356323 270.61789513 C9.72031866 270.61740193 8.25705248 270.62365822 6.79387283 270.63745117 C-3.38347922 270.72796113 -11.01717633 269.60952028 -19.57266235 263.95967102 C-26.72490289 256.47476813 -28.40949138 249.23045058 -28.40733337 239.15361023 C-28.41101006 238.23436535 -28.41468675 237.31512048 -28.41847485 236.3680197 C-28.42950841 233.28056321 -28.433355 230.19314037 -28.43716431 227.10566711 C-28.44342923 224.89472853 -28.45007605 222.68379099 -28.45707703 220.47285461 C-28.47811717 213.20544671 -28.48847966 205.93803859 -28.4984436 198.67060852 C-28.50249123 196.16837681 -28.50660816 193.66614521 -28.51079369 191.16391373 C-28.52766251 180.75479395 -28.54229691 170.34567575 -28.54954243 159.93654442 C-28.5514522 157.23673374 -28.55337255 154.53692307 -28.55532837 151.83711243 C-28.55581211 151.1661186 -28.55629585 150.49512477 -28.55679425 149.8037978 C-28.56508991 138.94052398 -28.5904198 128.07736043 -28.62290905 117.21413474 C-28.65601994 106.05170169 -28.67366237 94.88930849 -28.67718667 83.7268225 C-28.67953651 77.4633044 -28.68848865 71.19996064 -28.71364784 64.93648911 C-28.73694417 59.04150798 -28.7411553 53.14681578 -28.73088646 47.25180054 C-28.73039137 45.09193587 -28.73670388 42.9320569 -28.7504425 40.77223587 C-28.76819399 37.81535797 -28.76103892 34.85951333 -28.74790955 31.90263367 C-28.76436341 30.63138753 -28.76436341 30.63138753 -28.78114969 29.33445966 C-28.69903281 21.63377829 -26.30247723 15.23981927 -22.07266235 8.83467102 C-15.56029537 2.61174257 -8.897942 0.0339822 0 0 Z M-4.26016235 28.14717102 C-10.2021422 37.02155651 -10.49985154 44.52833101 -10.55532837 54.99873352 C-10.56680319 56.50371232 -10.58718338 58.00865187 -10.61685181 59.51338196 C-10.81949018 69.80605298 -10.3903446 78.88542317 -4.01016235 87.45967102 C4.56054536 95.83558993 13.20914916 97.44798438 24.82479858 97.43769836 C25.92005859 97.44441559 27.0153186 97.45113281 28.14376831 97.45805359 C31.75396296 97.47700507 35.36397139 97.4809565 38.97421265 97.48310852 C41.49376501 97.48953881 44.01331663 97.49626735 46.53286743 97.50328064 C51.81183065 97.51524657 57.09074694 97.5190481 62.36972046 97.51777649 C68.44722667 97.51657669 74.52437684 97.53765393 80.60179305 97.56926382 C86.47455599 97.59870663 92.3471796 97.6057488 98.22000885 97.60455704 C100.70616356 97.60690894 103.19232123 97.61570917 105.67842865 97.63122177 C109.16501427 97.65093886 112.6506967 97.64502023 116.13729858 97.63301086 C117.15273743 97.64424988 118.16817627 97.65548889 119.21438599 97.66706848 C127.65154521 97.5936628 134.9199049 95.59769391 142.05233765 91.02217102 C151.03466335 81.41317143 151.96806826 72.92864021 152.03500366 60.29560852 C152.04647848 58.79062972 152.06685867 57.28569017 152.0965271 55.78096008 C152.3200665 44.42665725 151.62412922 34.40812608 143.5171814 25.68232727 C137.75261878 20.70326549 131.50526683 18.03863573 123.92230225 18 C122.95521332 17.9928447 121.98812439 17.98568939 120.99172974 17.97831726 C119.40983856 17.97428391 119.40983856 17.97428391 117.79598999 17.97016907 C116.68005463 17.96359787 115.56411926 17.95702667 114.41436768 17.95025635 C110.71816947 17.93053297 107.02201191 17.91886201 103.32577515 17.90888977 C102.06214771 17.90481424 100.79852028 17.90073872 99.4966011 17.89653969 C93.4962206 17.87783161 87.49586465 17.86326614 81.49546278 17.85492772 C74.58929601 17.8451701 67.68345101 17.81888584 60.77739751 17.77842683 C54.78023731 17.74450946 48.78323205 17.73277294 42.78596878 17.72872353 C40.24315842 17.7238611 37.70035141 17.71225703 35.15760422 17.69368553 C31.5914955 17.66926134 28.02621977 17.67026585 24.46005249 17.67720032 C22.89637939 17.65798523 22.89637939 17.65798523 21.30111694 17.63838196 C11.44715695 17.70791808 2.34987534 20.4943284 -4.26016235 28.14717102 Z M5.01327515 139.83857727 C0.43312245 145.03737619 -0.68755799 148.2743842 -0.59609985 155.25263977 C-0.06717585 159.80999657 1.55662097 162.87146378 4.73983765 166.14717102 C9.81868131 169.96984013 14.50623116 170.8509653 20.73983765 170.14717102 C25.95599889 168.20389526 29.92414344 165.11195842 32.85702515 160.32295227 C34.57407284 156.09111348 34.26013887 151.62176157 33.73983765 147.14717102 C31.54155465 142.58150633 28.27078198 138.57204741 23.73983765 136.14717102 C16.81234457 134.28075553 10.39098001 134.57037319 5.01327515 139.83857727 Z M59.01327515 139.83857727 C54.43312245 145.03737619 53.31244201 148.2743842 53.40390015 155.25263977 C53.93282415 159.80999657 55.55662097 162.87146378 58.73983765 166.14717102 C63.81868131 169.96984013 68.50623116 170.8509653 74.73983765 170.14717102 C79.95599889 168.20389526 83.92414344 165.11195842 86.85702515 160.32295227 C88.57407284 156.09111348 88.26013887 151.62176157 87.73983765 147.14717102 C85.54155465 142.58150633 82.27078198 138.57204741 77.73983765 136.14717102 C70.81234457 134.28075553 64.39098001 134.57037319 59.01327515 139.83857727 Z M113.01327515 139.83857727 C108.43312245 145.03737619 107.31244201 148.2743842 107.40390015 155.25263977 C107.93282415 159.80999657 109.55662097 162.87146378 112.73983765 166.14717102 C117.81868131 169.96984013 122.50623116 170.8509653 128.73983765 170.14717102 C133.95599889 168.20389526 137.92414344 165.11195842 140.85702515 160.32295227 C142.57407284 156.09111348 142.26013887 151.62176157 141.73983765 147.14717102 C139.54155465 142.58150633 136.27078198 138.57204741 131.73983765 136.14717102 C124.81234457 134.28075553 118.39098001 134.57037319 113.01327515 139.83857727 Z M5.01327515 193.83857727 C0.43312245 199.03737619 -0.68755799 202.2743842 -0.59609985 209.25263977 C-0.06717585 213.80999657 1.55662097 216.87146378 4.73983765 220.14717102 C8.97509801 223.3349043 13.41912775 224.85593864 18.7281189 224.52217102 C24.27396905 223.48838148 28.39738536 221.16995063 31.73983765 216.58467102 C34.47962187 211.6159098 34.64723129 206.67633604 33.73983765 201.14717102 C31.54155465 196.58150633 28.27078198 192.57204741 23.73983765 190.14717102 C16.81234457 188.28075553 10.39098001 188.57037319 5.01327515 193.83857727 Z M59.01327515 193.83857727 C54.43312245 199.03737619 53.31244201 202.2743842 53.40390015 209.25263977 C53.93282415 213.80999657 55.55662097 216.87146378 58.73983765 220.14717102 C62.97509801 223.3349043 67.41912775 224.85593864 72.7281189 224.52217102 C78.27396905 223.48838148 82.39738536 221.16995063 85.73983765 216.58467102 C88.47962187 211.6159098 88.64723129 206.67633604 87.73983765 201.14717102 C85.54155465 196.58150633 82.27078198 192.57204741 77.73983765 190.14717102 C70.81234457 188.28075553 64.39098001 188.57037319 59.01327515 193.83857727 Z M113.01327515 193.83857727 C108.43312245 199.03737619 107.31244201 202.2743842 107.40390015 209.25263977 C107.93282415 213.80999657 109.55662097 216.87146378 112.73983765 220.14717102 C116.97509801 223.3349043 121.41912775 224.85593864 126.7281189 224.52217102 C132.27396905 223.48838148 136.39738536 221.16995063 139.73983765 216.58467102 C142.47962187 211.6159098 142.64723129 206.67633604 141.73983765 201.14717102 C139.54155465 196.58150633 136.27078198 192.57204741 131.73983765 190.14717102 C124.81234457 188.28075553 118.39098001 188.57037319 113.01327515 193.83857727 Z " fill="#000000" transform="translate(185.26016235351563,120.85282897949219)"/>
<path d="M0 0 C1.41098717 -0.01062721 1.41098717 -0.01062721 2.85047913 -0.02146912 C4.38804871 -0.01775299 4.38804871 -0.01775299 5.9566803 -0.01396179 C7.04163284 -0.01907272 8.12658539 -0.02418365 9.24441528 -0.02944946 C12.83483886 -0.04336227 16.42507085 -0.04238743 20.01551819 -0.04008484 C22.50889152 -0.04397075 25.00226418 -0.0483052 27.49563599 -0.05307007 C32.72355278 -0.06053585 37.95141989 -0.06037643 43.17933655 -0.05497742 C48.55017785 -0.04960494 53.92083069 -0.05665077 59.29164124 -0.07548523 C65.77368695 -0.09792673 72.25557513 -0.10574033 78.73765755 -0.10181236 C81.20922455 -0.10232624 83.68079522 -0.10757631 86.15234184 -0.11762428 C89.60683579 -0.12994469 93.06078892 -0.123223 96.51527405 -0.11161804 C97.5382962 -0.11926178 98.56131836 -0.12690552 99.61534119 -0.13478088 C108.30163709 -0.07020238 108.30163709 -0.07020238 112.30067444 3.26069641 C115.65749462 7.89451939 114.71082537 14.15622481 114.72621155 19.6230011 C114.73809502 21.62233515 114.78781519 23.62132656 114.83778381 25.62007141 C114.89802737 36.42009798 114.89802737 36.42009798 111.96083069 40.11225891 C108.50648509 42.90211218 106.09959492 43.38518009 101.79753113 43.40113831 C100.87507599 43.40684845 99.95262085 43.41255859 99.00221252 43.41844177 C97.99227234 43.41955963 96.98233215 43.42067749 95.94178772 43.42182922 C94.34383865 43.42927658 94.34383865 43.42927658 92.71360779 43.43687439 C89.18272765 43.45150257 85.65189242 43.45829879 82.12098694 43.46382141 C79.67102558 43.46957189 77.22106423 43.47532963 74.77110291 43.48109436 C69.63138112 43.49160592 64.49167499 43.49744772 59.35194397 43.50093079 C52.76205629 43.5064188 46.17237489 43.53045296 39.58255196 43.55890274 C34.52111707 43.5775135 29.45973205 43.58273387 24.39826584 43.58426666 C21.96855922 43.58729674 19.53885356 43.59533717 17.10918045 43.60845184 C13.71207663 43.62548088 10.31547924 43.62363964 6.91835022 43.61714172 C5.9124585 43.62635651 4.90656677 43.63557129 3.87019348 43.64506531 C-2.29465303 43.60807235 -5.9766114 42.96816457 -10.48692322 38.48310852 C-12.1364109 35.45949064 -12.08776251 33.13681539 -12.09776306 29.70210266 C-12.10163025 28.42915344 -12.10549744 27.15620422 -12.10948181 25.84468079 C-12.10319763 25.18427795 -12.09691345 24.52387512 -12.09043884 23.84346008 C-12.07440181 21.83275675 -12.09028833 19.82407126 -12.10948181 17.81343079 C-12.10561462 16.5391925 -12.10174744 15.26495422 -12.09776306 13.95210266 C-12.09437927 12.78880432 -12.09099548 11.62550598 -12.08750916 10.42695618 C-11.65468856 6.8966101 -10.88135853 5.05200635 -8.69932556 2.26069641 C-5.72395758 0.42108217 -3.47168636 0.0087367 0 0 Z " fill="#000000" transform="translate(204.69932556152344,156.7393035888672)"/>
</svg>
